<?xml version="1.0" encoding="utf-8"?>
<!-- Generator: Adobe Illustrator 22.1.0, SVG Export Plug-In . SVG Version: 6.00 Build 0)  -->
<svg version="1.1" id="Layer_1" xmlns="http://www.w3.org/2000/svg" xmlns:xlink="http://www.w3.org/1999/xlink" x="0px" y="0px"
	 viewBox="0 0 463 463" style="enable-background:new 0 0 463 463;" xml:space="preserve">
<style type="text/css">
	.st0{fill:#707070;}
</style>
<g>
	<g>
		<g>
			<path class="st0" d="M455.5,368H353.4c31.8-16.1,58.1-39.5,76.6-68.5c1.6-2.5,1.6-5.6,0-8.1c-17.5-27.4-42.5-50.3-72.4-66.3
				c-30.8-16.5-66-25.2-101.9-25.2c-50.7,0-98.7,17.1-136,48.2c-20-16.6-44-29.6-69.8-37.8c-2.2-0.7-4.6-0.3-6.5,1
				c-1.9,1.3-3.1,3.4-3.2,5.7c-0.6,9.8,0,43.3,29.6,78.4C44.6,325.4,40.4,354.1,40,368H7.5c-4.1,0-7.5,3.4-7.5,7.5s3.4,7.5,7.5,7.5
				h60.3l14.6,19.4c5.9,7.9,15.3,12.6,25.2,12.6h248c9.9,0,19.3-4.7,25.2-12.6l14.5-19.4h60.3c4.1,0,7.5-3.4,7.5-7.5
				C463,371.4,459.6,368,455.5,368z M414.7,295.5c-15.8,23.3-38,43-63.9,56.9c-15.2-15.2-23.6-35.4-23.6-56.9
				c0-21.3,8.6-41.9,23.6-56.9C376.9,252.6,398.9,272.2,414.7,295.5z M328,359.5c0,3-0.8,5.9-2.4,8.5h-28.2
				c-1.6-2.6-2.4-5.5-2.4-8.5c0-9.1,7.4-16.5,16.5-16.5C320.6,343,328,350.4,328,359.5z M336.6,231.7
				c-15.6,17.4-24.4,40.2-24.4,63.8c0,11.5,2,22.7,5.9,33.2c-2.1-0.5-4.3-0.7-6.6-0.7c-3.8,0-7.4,0.7-10.7,1.9
				c-3.7-10.9-5.6-22.4-5.6-34.1c0-26,9.4-50.6,26.5-69.9C326.8,227.6,331.7,229.6,336.6,231.7z M55.4,362.8
				c1.4-13.6,7.3-37.8,29.8-62.3c2.6-2.9,2.6-7.3,0-10.2c-22.5-24.5-28.4-48.6-29.8-62.3c22.2,8.4,42.5,20.5,59.3,35.5
				c2.8,2.5,7.1,2.5,10,0c35.2-31.4,81.7-48.7,131-48.7c17.1,0,34,2.1,50.3,6.2c-15.1,19.2-24,42.3-25.6,66.8h-49
				c-0.1,0-0.1,0-0.2,0c-2.1-8.2-6.6-16.2-13.2-22.8c-13.8-13.8-33.7-18.4-49.3-11.5c-1.7,0.8-3,2.1-3.8,3.8
				c-4.2,9.4-4.2,20.3-0.6,30.4h-52.7c-4.1,0-7.5,3.4-7.5,7.5s3.4,7.5,7.5,7.5H173c1.1,1.3,2.3,2.6,3.5,3.9
				c9.5,9.5,21.9,14.7,33.8,14.7c3.8,0,7.5-0.5,11.1-1.6l13,13c-1,1.1-1.9,2.2-2.8,3.4c-6.8-5.3-15.3-8.3-24.1-8.3
				c-12.5,0-24.2,6-31.6,16c-0.1,0-0.3,0-0.4,0c-7,0-13.5,2.3-18.8,6.2c-11.5-6.6-22.3-14.3-32-22.9c-2.8-2.5-7.1-2.5-10,0
				C97.9,342.3,77.6,354.5,55.4,362.8z M281.2,368h-40.6c-1-2.7-1.5-5.6-1.5-8.5c0-13.5,11-24.5,24.5-24.5c7.9,0,15.3,3.9,19.9,10.3
				c-2.2,4.3-3.4,9.1-3.4,14.2C280,362.4,280.4,365.3,281.2,368z M263.5,320c-6.1,0-11.9,1.4-17,3.9l-14.9-14.9
				c0.5-1.9,0.9-3.9,1.1-5.9h47.8c0.5,7.7,1.6,15.3,3.5,22.8C277.9,322.1,270.8,320,263.5,320z M199.5,298.1l8.3,8.3
				c-7.3-0.7-14.8-4.2-20.7-10.1c-8.5-8.5-12.1-20.3-9.4-29.8c9.5-2.7,21.3,0.9,29.8,9.4c5.4,5.4,8.9,12.3,9.9,19l-7.3-7.3
				c-2.9-2.9-7.7-2.9-10.6,0C196.6,290.4,196.6,295.2,199.5,298.1z M224.9,368h-64.1c2.7-5.3,8.3-9,14.7-9c0.8,0,1.7,0.1,2.9,0.3
				c3.1,0.6,6.3-0.9,7.9-3.7c4.4-7.8,12.5-12.6,21.3-12.6c6.6,0,12.9,2.7,17.5,7.6c-0.7,2.9-1,5.9-1,8.9
				C224,362.4,224.3,365.2,224.9,368z M80.9,368c14-7,27.1-15.5,38.8-25.2c8.5,7.1,17.7,13.5,27.4,19.2c-0.9,1.9-1.6,3.9-2.1,6H80.9
				z M368.7,393.4c-3.1,4.1-8,6.6-13.2,6.6h-248c-5.2,0-10.1-2.5-13.2-6.6L86.5,383h290L368.7,393.4z"/>
			<path class="st0" d="M363.7,295c6.3,0,11.5-5.2,11.5-11.5S370,272,363.7,272s-11.5,5.2-11.5,11.5S357.4,295,363.7,295z"/>
			<path class="st0" d="M208,135.5c0,12.6,5.3,19.3,9.6,24.7c3.7,4.6,6.4,7.9,6.4,15.3c0,4.1,3.4,7.5,7.5,7.5s7.5-3.4,7.5-7.5
				c0-12.6-5.3-19.3-9.6-24.7c-3.7-4.6-6.4-7.9-6.4-15.3c0-7.4,2.7-10.7,6.4-15.3c4.3-5.4,9.6-12.1,9.6-24.7
				c0-12.6-5.3-19.3-9.6-24.7c-3.7-4.6-6.4-8-6.4-15.3c0-4.1-3.4-7.5-7.5-7.5s-7.5,3.4-7.5,7.5c0,12.6,5.3,19.3,9.6,24.7
				c3.7,4.6,6.4,8,6.4,15.3c0,7.4-2.7,10.7-6.4,15.3C213.3,116.2,208,122.9,208,135.5z"/>
			<path class="st0" d="M248.5,143c2.4,0,4.5-1.1,5.9-2.8c5.4-6.8,16.6-20.8,16.6-44.7c0-9.7-1.9-18.8-5.5-27.1
				c-1.7-3.8-6.1-5.5-9.9-3.8c-3.8,1.7-5.5,6.1-3.8,9.9c2.8,6.4,4.3,13.5,4.3,21.1c0,18.5-8.3,29-13.3,35.2c-1.1,1.3-1.7,3-1.7,4.8
				C241,139.7,244.3,143,248.5,143z"/>
			<path class="st0" d="M188.3,167c1,0,2-0.2,3-0.6c3.8-1.7,5.5-6.1,3.9-9.9c-2.8-6.4-4.2-13.4-4.2-20.9c0-18.6,8.4-29.1,13.4-35.3
				c0.1-0.2,0.3-0.3,0.4-0.5c1.7-2.5,1.7-5.9,0-8.4c-2.3-3.4-7-4.4-10.4-2.1c-0.9,0.6-1.6,1.3-2.1,2.2c-5.6,7-16.2,20.9-16.2,44.1
				c0,9.6,1.8,18.7,5.5,26.9C182.7,165.3,185.4,167,188.3,167z"/>
		</g>
	</g>
</g>
</svg>
