<?xml version="1.0" encoding="utf-8"?>
<!-- Generator: Adobe Illustrator 22.1.0, SVG Export Plug-In . SVG Version: 6.00 Build 0)  -->
<svg version="1.1" id="Layer_1" xmlns="http://www.w3.org/2000/svg" xmlns:xlink="http://www.w3.org/1999/xlink" x="0px" y="0px"
	 viewBox="0 0 463 463" style="enable-background:new 0 0 463 463;" xml:space="preserve">
<style type="text/css">
	.st0{fill:#707070;}
</style>
<g>
	<g>
		<g>
			<path class="st0" d="M407.5,0h-160c-6.2,0-11.8,2.4-16,6.3c-4.2-3.9-9.8-6.3-16-6.3h-160C42.5,0,32,10.5,32,23.5v416
				c0,13,10.5,23.5,23.5,23.5h160c6.2,0,11.8-2.4,16-6.3c4.2,3.9,9.8,6.3,16,6.3h160c13,0,23.5-10.5,23.5-23.5v-416
				C431,10.5,420.5,0,407.5,0z M224,32h-8.5c-4.1,0-7.5,3.4-7.5,7.5s3.4,7.5,7.5,7.5h8.5v369h-8.5c-4.1,0-7.5,3.4-7.5,7.5
				s3.4,7.5,7.5,7.5h8.5v8.5c0,4.7-3.8,8.5-8.5,8.5h-160c-4.7,0-8.5-3.8-8.5-8.5v-416c0-4.7,3.8-8.5,8.5-8.5h160
				c4.7,0,8.5,3.8,8.5,8.5V32z M416,439.5c0,4.7-3.8,8.5-8.5,8.5h-160c-4.7,0-8.5-3.8-8.5-8.5V431h8.5c4.1,0,7.5-3.4,7.5-7.5
				s-3.4-7.5-7.5-7.5H239V47h8.5c4.1,0,7.5-3.4,7.5-7.5s-3.4-7.5-7.5-7.5H239v-8.5c0-4.7,3.8-8.5,8.5-8.5h160c4.7,0,8.5,3.8,8.5,8.5
				V439.5z"/>
			<path class="st0" d="M371.5,56h-88C268.3,56,256,68.3,256,83.5s12.3,27.5,27.5,27.5h88c15.2,0,27.5-12.3,27.5-27.5
				S386.7,56,371.5,56z M371.5,96h-88c-6.9,0-12.5-5.6-12.5-12.5S276.6,71,283.5,71h88c6.9,0,12.5,5.6,12.5,12.5S378.4,96,371.5,96z
				"/>
			<path class="st0" d="M375.5,143c4.1,0,7.5-3.4,7.5-7.5s-3.4-7.5-7.5-7.5h-96c-4.1,0-7.5,3.4-7.5,7.5s3.4,7.5,7.5,7.5H375.5z"/>
			<path class="st0" d="M256,207.5c0,4.1,3.4,7.5,7.5,7.5h112c4.1,0,7.5-3.4,7.5-7.5s-3.4-7.5-7.5-7.5h-112
				C259.4,200,256,203.4,256,207.5z"/>
			<path class="st0" d="M263.5,247h80c4.1,0,7.5-3.4,7.5-7.5s-3.4-7.5-7.5-7.5h-80c-4.1,0-7.5,3.4-7.5,7.5S259.4,247,263.5,247z"/>
			<path class="st0" d="M391.5,232h-16c-4.1,0-7.5,3.4-7.5,7.5s3.4,7.5,7.5,7.5h16c4.1,0,7.5-3.4,7.5-7.5S395.6,232,391.5,232z"/>
			<path class="st0" d="M263.5,279h112c4.1,0,7.5-3.4,7.5-7.5s-3.4-7.5-7.5-7.5h-112c-4.1,0-7.5,3.4-7.5,7.5S259.4,279,263.5,279z"
				/>
			<path class="st0" d="M263.5,311h80c4.1,0,7.5-3.4,7.5-7.5s-3.4-7.5-7.5-7.5h-80c-4.1,0-7.5,3.4-7.5,7.5S259.4,311,263.5,311z"/>
			<path class="st0" d="M391.5,296h-16c-4.1,0-7.5,3.4-7.5,7.5s3.4,7.5,7.5,7.5h16c4.1,0,7.5-3.4,7.5-7.5S395.6,296,391.5,296z"/>
			<path class="st0" d="M263.5,343h112c4.1,0,7.5-3.4,7.5-7.5s-3.4-7.5-7.5-7.5h-112c-4.1,0-7.5,3.4-7.5,7.5S259.4,343,263.5,343z"
				/>
			<path class="st0" d="M343.5,360h-80c-4.1,0-7.5,3.4-7.5,7.5s3.4,7.5,7.5,7.5h80c4.1,0,7.5-3.4,7.5-7.5S347.6,360,343.5,360z"/>
			<path class="st0" d="M391.5,360h-16c-4.1,0-7.5,3.4-7.5,7.5s3.4,7.5,7.5,7.5h16c4.1,0,7.5-3.4,7.5-7.5S395.6,360,391.5,360z"/>
			<path class="st0" d="M127.5,96c-4.1,0-7.5,3.4-7.5,7.5V160h-9v-56.5c0-4.1-3.4-7.5-7.5-7.5s-7.5,3.4-7.5,7.5V160h-9v-56.5
				c0-4.1-3.4-7.5-7.5-7.5s-7.5,3.4-7.5,7.5v72c0,13,10.5,23.5,23.5,23.5H96v168.5c0,4.1,3.4,7.5,7.5,7.5s7.5-3.4,7.5-7.5V199h0.5
				c13,0,23.5-10.5,23.5-23.5v-72C135,99.4,131.6,96,127.5,96z M120,175.5c0,4.7-3.8,8.5-8.5,8.5h-16c-4.7,0-8.5-3.8-8.5-8.5V175h33
				V175.5z"/>
			<path class="st0" d="M183.7,110.3c-0.8-8.2-7.6-14.3-15.8-14.3c-8.8,0-15.9,7.1-15.9,15.9v255.6c0,4.1,3.4,7.5,7.5,7.5
				s7.5-3.4,7.5-7.5V287h7c6.6,0,12.9-2.8,17.3-7.6s6.6-11.4,6.1-18L183.7,110.3z M180.3,269.2c-1.6,1.8-3.9,2.8-6.3,2.8h-7V111.9
				c0-0.5,0.4-0.9,0.9-0.9c0.5,0,0.8,0.3,0.9,0.7l13.7,151C182.7,265.1,181.9,267.4,180.3,269.2z"/>
		</g>
	</g>
</g>
</svg>
