<?xml version="1.0" encoding="utf-8"?>
<!-- Generator: Adobe Illustrator 22.1.0, SVG Export Plug-In . SVG Version: 6.00 Build 0)  -->
<svg version="1.1" id="Layer_1" xmlns="http://www.w3.org/2000/svg" xmlns:xlink="http://www.w3.org/1999/xlink" x="0px" y="0px"
	 viewBox="0 0 463 463" style="enable-background:new 0 0 463 463;" xml:space="preserve">
<style type="text/css">
	.st0{fill:#707070;}
	.st1{fill:#707070;stroke:#000000;stroke-miterlimit:10;}
</style>
<g>
	<g>
		<g>
			<path class="st0" d="M407.5,280c-6.3,0-12.3,1.1-17.9,3l-7.6-15.3c8-3,16.6-4.7,25.5-4.7c10.1,0,19.8,2,29,6
				c3.8,1.7,8.2-0.1,9.9-3.9c1.7-3.8-0.1-8.2-3.9-9.9c-11.1-4.8-22.8-7.3-35-7.3c-11.3,0-22.2,2.2-32.3,6.2l-27.8-55.6
				c1.3,0.2,2.7,0.4,4,0.4h16c4.1,0,7.5-3.4,7.5-7.5v-32c0-4.1-3.4-7.5-7.5-7.5h-16c-9.1,0-17,5.2-20.9,12.9l-7.9-15.9
				c-4-8-12.1-13-21-13h-14.1c-4.1,0-7.5,3.4-7.5,7.5s3.4,7.5,7.5,7.5h14.1c3.2,0,6.2,1.8,7.6,4.7l19.4,38.8l-3.6,1.8
				c-8,4-13,12.1-13,21V296h-64.5c-13.5,0-24.5-11-24.5-24.5V239h0.5c13,0,23.5-10.5,23.5-23.5S236.5,192,223.5,192h-64
				c-6.4,0-12.3,2.6-16.5,6.8V87.5c0-8.5-7-15.5-15.5-15.5h-112C7,72,0,79,0,87.5v112C0,208,7,215,15.5,215h16.8
				c-0.4,1.5-0.5,3.1-0.5,4.7C32,230.4,40.8,239,51.4,239h40.3c-5.1,3.2-9.4,6.7-13,9.9c-16.6,14.9-25.5,32.7-28.3,44.4
				c-1.5,6.3-0.1,12.8,3.9,17.8c3.9,5,9.8,7.8,16.2,7.8c0,0,0,0,0,0l4,0c-1.7,5.3-2.5,10.9-2.5,16.5c0,30.6,24.9,55.5,55.5,55.5
				c28.1,0,51.3-20.9,55-48h145c4.1,0,7.5-3.4,7.5-7.5c0-4.9,0.5-9.8,1.5-14.5c4-19.7,16-36.3,32.1-46.6l7.6,15.3
				c-14.6,10-24.2,26.8-24.2,45.8c0,30.6,24.9,55.5,55.5,55.5s55.5-24.9,55.5-55.5S438.1,280,407.5,280z M159.5,207h64
				c4.7,0,8.5,3.8,8.5,8.5s-3.8,8.5-8.5,8.5h-64c-4.7,0-8.5-3.8-8.5-8.5S154.8,207,159.5,207z M15,87.5c0-0.3,0.2-0.5,0.5-0.5h112
				c0.3,0,0.5,0.2,0.5,0.5V104H15V87.5z M15.5,200c-0.3,0-0.5-0.2-0.5-0.5V119h113v80.5c0,0.3-0.2,0.5-0.5,0.5H15.5z M51.4,224
				c-2.5,0-4.5-2-4.6-4.5c0-1.2,0.4-2.4,1.3-3.3c0.6-0.6,1.4-1,2.2-1.2l85.7,0c0,0.2,0,0.3,0,0.5c0,3,0.6,5.9,1.6,8.5H51.4z
				 M70.5,304C70.5,304,70.5,304,70.5,304c-2.4,0-3.8-1.3-4.4-2.1c-1.1-1.4-1.5-3.3-1.1-5.1c5.5-23.3,34.3-57.8,78.5-57.8
				c34.3,0,47.1,32.8,47.1,53.5c0,5.6-3.1,11.3-9,11.3L70.5,304z M136,335.5c0,4.7-3.8,8.5-8.5,8.5s-8.5-3.8-8.5-8.5
				s3.8-8.5,8.5-8.5S136,330.8,136,335.5z M127.5,376c-22.3,0-40.5-18.2-40.5-40.5c0-5.7,1.2-11.4,3.6-16.6l20.3,0
				c-4.3,4.3-6.9,10.1-6.9,16.6c0,13,10.5,23.5,23.5,23.5s23.5-10.5,23.5-23.5c0-6.5-2.7-12.4-7-16.7l20.3,0
				c2.4,5.2,3.6,10.9,3.6,16.7C168,357.8,149.8,376,127.5,376z M321.8,318c-0.7,3.3-1.1,6.6-1.4,10H182.5c-0.4-3.1-1.1-6.2-2.1-9.2
				l1.2,0c13.7,0,24-11.3,24-26.3c0-16.2-5.4-32.7-14.8-45.1c-2.1-2.7-4.6-5.6-7.6-8.3H208v32.5c0,21.8,17.7,39.5,39.5,39.5h72
				c1.7,0,3.2-0.5,4.4-1.5C323.1,312.3,322.3,315.1,321.8,318z M351.5,167h8.5v17h-8.5c-4.7,0-8.5-3.8-8.5-8.5S346.8,167,351.5,167z
				 M327,301.2v-83.8c0-3.2,1.8-6.2,4.7-7.6l3.6-1.8l26.5,53C346.5,270.3,334.2,284.3,327,301.2z M407.5,376
				c-22.3,0-40.5-18.2-40.5-40.5s18.2-40.5,40.5-40.5s40.5,18.2,40.5,40.5S429.8,376,407.5,376z"/>
			<path class="st0" d="M407.5,312c-13,0-23.5,10.5-23.5,23.5s10.5,23.5,23.5,23.5s23.5-10.5,23.5-23.5S420.5,312,407.5,312z
				 M407.5,344c-4.7,0-8.5-3.8-8.5-8.5s3.8-8.5,8.5-8.5s8.5,3.8,8.5,8.5S412.2,344,407.5,344z"/>
		</g>
	</g>
</g>
<g>
	<path class="st1" d="M266.3,115.1c0.9,0.9,2.3,0.9,3.2,0l3.2-3.2c0.9-0.9,0.9-2.3,0-3.2l-7.2-7.2c-0.9-0.9-2.3-0.9-3.2,0l-3.2,3.2
		c-0.9,0.9-0.9,2.3,0,3.2l0.3,0.3l-2.2,2.2c-5.6-4.5-12.5-7.5-20-8.3v-4.1h2.5c1.2,0,2.2-1,2.2-2.2v-6.6c0-1.2-1-2.2-2.2-2.2h-14.3
		c-1.2,0-2.2,1-2.2,2.2v6.6c0,1.2,1,2.2,2.2,2.2h2.5v4.1c-7.5,0.9-14.4,3.9-20,8.3l-2.2-2.2l0.3-0.3c0.9-0.9,0.9-2.3,0-3.2l-3.2-3.2
		c-0.9-0.9-2.3-0.9-3.2,0l-7.2,7.2c-0.9,0.9-0.9,2.3,0,3.2l3.2,3.2c0.9,0.9,2.3,0.9,3.2,0l0.3-0.3l2.2,2.2
		c-5.3,6.8-8.5,15.3-8.5,24.6c0,21.9,17.9,39.8,39.8,39.8s39.8-17.9,39.8-39.8c0-9.3-3.2-17.8-8.5-24.6l2.2-2.2L266.3,115.1z
		 M232.5,172.2c-16.8,0-30.5-13.7-30.5-30.5s13.7-30.5,30.5-30.5s30.5,13.7,30.5,30.5S249.3,172.2,232.5,172.2z"/>
	<path class="st0" d="M165.6,152.3c-2.2,0-3.9,1.8-3.9,3.9c0,2.2,1.8,3.9,3.9,3.9H187c0.4,0,0.8-0.1,1.2-0.2c-1-2.5-1.9-5-2.4-7.7
		L165.6,152.3L165.6,152.3z"/>
	<path class="st0" d="M188.1,123.4c-0.4-0.1-0.8-0.2-1.2-0.2h-33.6c-2.2,0-3.9,1.8-3.9,3.9c0,2.2,1.8,3.9,3.9,3.9h32.3
		C186.3,128.5,187.1,125.9,188.1,123.4z"/>
	<path class="st0" d="M184.5,141.7c0-1.3,0.1-2.6,0.2-3.9h-25.8c-2.2,0-3.9,1.8-3.9,3.9s1.8,3.9,3.9,3.9h25.8
		C184.6,144.3,184.5,143,184.5,141.7z"/>
	<path class="st0" d="M251.7,130.3c-0.7-1.1-2-1.5-3.2-0.9l-13.8,6.7c-1.7-0.7-3.7-0.6-5.4,0.4c-2.9,1.7-3.8,5.4-2.1,8.3
		s5.4,3.8,8.3,2.1c1.7-1,2.7-2.7,2.9-4.5l12.5-8.8C252.1,132.8,252.4,131.4,251.7,130.3z M235.1,142.3c-0.4,1.4-1.8,2.3-3.2,1.9
		c-1.4-0.4-2.3-1.8-1.9-3.2c0.4-1.4,1.8-2.3,3.2-1.9C234.6,139.5,235.4,140.9,235.1,142.3z"/>
	<path class="st0" d="M241.1,126.5c1.2,0.7,2.7,0.3,3.4-0.9c0.7-1.2,0.3-2.7-0.9-3.4c-1.2-0.7-2.7-0.3-3.4,0.9
		c-0.5,0.8-0.4,1.8,0,2.5C240.4,125.9,240.7,126.3,241.1,126.5z"/>
	<path class="st0" d="M232.4,124.2c1.4,0,2.5-1.1,2.5-2.5c0-1.4-1.1-2.5-2.5-2.5s-2.5,1.1-2.5,2.5c0,0.5,0.1,0.9,0.3,1.2
		C230.6,123.7,231.4,124.2,232.4,124.2z"/>
	<path class="st0" d="M232.7,159.2L232.7,159.2c-1.4,0-2.5,1.1-2.5,2.5c0,0.5,0.1,0.9,0.3,1.2c0.4,0.7,1.2,1.2,2.2,1.2
		c1.4,0,2.5-1.1,2.4-2.5C235.2,160.3,234.1,159.2,232.7,159.2z"/>
	<path class="st0" d="M241.4,156.7c-1.2,0.7-1.6,2.2-0.9,3.4l0,0c0.7,1.2,2.2,1.6,3.4,0.9c1.2-0.7,1.6-2.2,0.9-3.4
		C244.1,156.4,242.6,156.1,241.4,156.7z"/>
	<path class="st0" d="M251.1,149.4c-1.2-0.7-2.7-0.3-3.4,0.9c-0.5,0.8-0.4,1.7,0,2.5c0.2,0.4,0.5,0.7,0.9,0.9
		c1.2,0.7,2.7,0.3,3.4-0.9C252.7,151.6,252.3,150,251.1,149.4z"/>
	<path class="st0" d="M215,141.9c0-1.4-1.1-2.5-2.5-2.5c-1.4,0-2.5,1.1-2.5,2.5c0,0.5,0.1,0.9,0.3,1.2c0.4,0.7,1.2,1.2,2.2,1.2
		C213.9,144.4,215,143.3,215,141.9z"/>
	<path class="st0" d="M214.1,149.7c-1.2,0.7-1.6,2.2-0.9,3.4l0,0c0.7,1.2,2.2,1.6,3.4,0.9c1.2-0.7,1.6-2.2,0.9-3.4
		C216.8,149.4,215.2,149,214.1,149.7z"/>
	<path class="st0" d="M250,141.5c0,0.5,0.1,0.9,0.4,1.2c0.4,0.7,1.2,1.2,2.2,1.2c1.4,0,2.5-1.1,2.5-2.5c0-1.4-1.1-2.5-2.5-2.5
		C251.1,139,250,140.2,250,141.5z"/>
	<path class="st0" d="M213.9,134.1c1.2,0.7,2.7,0.3,3.4-0.9l0,0c0.7-1.2,0.3-2.7-1-3.4c-1.2-0.7-2.7-0.3-3.4,0.9
		c-0.4,0.8-0.4,1.7,0,2.5C213.2,133.5,213.5,133.9,213.9,134.1z"/>
	<path class="st0" d="M223.6,126.7C223.6,126.7,223.6,126.7,223.6,126.7C223.6,126.7,223.6,126.7,223.6,126.7
		C223.6,126.6,223.6,126.6,223.6,126.7c1.2-0.7,1.6-2.3,0.9-3.4c-0.7-1.2-2.2-1.6-3.4-0.9c0,0,0,0,0,0c0,0,0,0-0.1,0
		c-1.2,0.7-1.6,2.2-0.9,3.4l0,0C220.9,127,222.4,127.4,223.6,126.7z"/>
	<path class="st0" d="M223.9,156.9c-1.2-0.7-2.7-0.3-3.4,0.9c-0.5,0.8-0.4,1.8,0,2.5c0.2,0.4,0.5,0.7,0.9,0.9
		c1.2,0.7,2.7,0.2,3.4-0.9C225.5,159.1,225.1,157.6,223.9,156.9z"/>
</g>
</svg>
